# xmcd CD database file
#
# Track frame offsets:
#	150
#	20425
#	40853
#	65178
#	97087
#	119876
#	146602
#	173988
#	186673
#	203612
#
# Disc length: 3155 seconds
#
# Revision: 0
# Processed by: cddbd v1.5.2PL0 Copyright (c) Steve Scherf et al.
# Submitted via: CDex 1.70beta2
#
DISCID=9e0c510a
DTITLE=Yvan Robillard - Intuitions
DYEAR=2011
DGENRE=Jazz
TTITLE0=in time
TTITLE1=au fur et a mesure
TTITLE2=contrastes
TTITLE3=en potee
TTITLE4=contemplation
TTITLE5=l'eveil
TTITLE6=ecole buissonniere
TTITLE7=fafy
TTITLE8=temps compte
TTITLE9=the rise of evil
EXTD=YEAR: 2011
EXTT0=
EXTT1=
EXTT2=
EXTT3=
EXTT4=
EXTT5=
EXTT6=
EXTT7=
EXTT8=
EXTT9=
PLAYORDER=
